<?xml version="1.0" encoding="utf-8"?>
<!-- Generator: Adobe Illustrator 27.0.0, SVG Export Plug-In . SVG Version: 6.00 Build 0)  -->
<svg version="1.1" id="Ebene_1" xmlns="http://www.w3.org/2000/svg" xmlns:xlink="http://www.w3.org/1999/xlink" x="0px" y="0px"
	 viewBox="0 0 550 150" style="enable-background:new 0 0 550 150;" xml:space="preserve">
<style type="text/css">
	.st0{fill:#FC1154;}
</style>
<path class="st0" d="M75.2,39.2c-3.9-4.5-10.4-7.9-20-7.9C41.2,31.3,25,42,25,64.4s15.6,33.1,31.3,33.1c8,0,14.2-2.7,18.9-6.5v30.6
	H93v-89H75.2V39.2z M75.2,67.4c0,9.4-7,15.3-15.6,15.3c-9.4,0-16.5-6.4-16.5-18.3s7.1-18.3,16.7-18.3c8.5,0,15.5,5.7,15.5,15.3
	C75.2,61.3,75.2,67.4,75.2,67.4z M172.1,5c-5.6,0-10.3,4.7-10.3,10.3s4.7,10.3,10.3,10.3s10.3-4.7,10.3-10.3S177.8,5,172.1,5z
	 M163.2,46.7l-0.8,0.4c-2.5,1.3-4.7,2.1-4.7,2.1c0.1-8.8-4.9-17.7-13.8-17.7c-7,0-14.2,5.7-14.2,15.4S134,63.3,141,66.2
	c-0.5,6.4-4.1,13.2-12.9,13.2c-9.6,0-13-8-13-14.8V32.9H98.4v31.7c0,18.3,12.5,31.6,29.7,31.6c16.6,0,28.8-12.3,29.6-29.5
	c1.4-0.3,2.9-0.7,5.4-1.8v31.3H181V32.6h-17.8L163.2,46.7L163.2,46.7z M218.5,46.7c8.6,0,13.7,4.6,15.4,11.1l14.8-1.5l1-1.3
	c-2.8-14.4-14.2-23.6-31.1-23.6c-18.6,0-33.3,13.5-33.3,33.1s14.8,33.1,33.3,33.1c16.3,0,27.3-8.5,31.1-23.8l-1-1.1L233.9,71
	c-2.3,6.9-6.7,11.1-15.4,11.1s-16-6.1-16-17.7S209.4,46.7,218.5,46.7z M312.2,32.6h-21L273,53.3h-0.8v-50h-17.8v92.8h17.8V69.5h0.8
	l19.5,26.7h21l-25.7-35.6L312.2,32.6L312.2,32.6z M354,31.3c-9.5,0-16,3.6-20.5,8.1v-6.9h-17.8v89h17.8V90.9
	c4.3,3.7,10.9,6.5,18.3,6.5c15.8,0,31.9-10.7,31.9-33.1S368.1,31.3,354,31.3L354,31.3z M349.3,82.7c-8.8,0-15.8-5.8-15.8-15.3v-6.1
	c0-9.5,7-15.3,15.5-15.3c9.5,0,16.7,6.4,16.7,18.3S358.6,82.7,349.3,82.7L349.3,82.7z M435.5,37.8c-4.7-3.8-10.7-6.5-18.7-6.5
	c-15.6,0-31.5,10.7-31.5,33.1s16.4,33.1,30.5,33.1c9.3,0,15.5-3.4,19.7-7.9v6.6h17.8V32.6h-17.8V37.8L435.5,37.8z M435.5,67.4
	c0,9.5-7,15.3-15.5,15.3c-9.5,0-16.7-6.4-16.7-18.3s7.1-18.3,16.5-18.3c8.6,0,15.6,5.8,15.6,15.3C435.5,61.3,435.5,67.4,435.5,67.4z
	 M506.2,32.6L490,73.5h-1l-0.6-9.3l-13-31.7h-20.3l26.2,61.9l-10.9,27.1h18.6l36.1-89L506.2,32.6L506.2,32.6z M140.3,114.6
	c-3.2,0-5.4,1.2-7.1,2.6v-12.5h-6.3v32.9h6.3v-2.4c1.6,1.6,3.8,2.9,7.2,2.9c5,0,10.6-3.8,10.6-11.7S145.8,114.6,140.3,114.6
	L140.3,114.6z M138.7,132.8c-2.8,0-5.5-2-5.5-5.4v-2.2c0-3.3,2.5-5.4,5.6-5.4c3.3,0,5.8,2.3,5.8,6.5
	C144.6,130.6,142.1,132.8,138.7,132.8L138.7,132.8z M261.5,114.4c-3,0-5.9,1.2-8,3.3c-2.2,2.2-3.4,5.3-3.4,8.6
	c0,7.1,4.6,11.9,11.5,11.9c4.8,0,8.6-2.1,10.6-5.8l0,0l-4.8-2.2h0l0,0c-1,1.6-3.1,2.6-5.6,2.6c-3,0-5-1.7-5.5-4.5h16.6v-2.1
	c0-3.5-1.1-6.5-3.2-8.6C267.5,115.5,264.8,114.4,261.5,114.4L261.5,114.4z M256.3,123.4c0.7-2.4,2.7-3.8,5.2-3.8
	c2.8,0,4.7,1.4,5.2,3.8H256.3z M280.8,116.7v-1.8h-6.2v23h6.2v-14.2c1.2-2.3,3.1-3.6,5.3-3.6c0,0,1,0,1.6,0.2l0.5-5.5
	c-0.8-0.3-1.8-0.3-1.8-0.3C284.4,114.4,282.4,115.2,280.8,116.7L280.8,116.7z M230.6,120.3H241l-11,13.1l0,0v4.4h19.6v-5.4h-11.1
	l11.1-13.3l0,0v-4.3h-19L230.6,120.3L230.6,120.3z M161.8,129.6h-0.4l-0.2-3.3l-4.6-11.2h-7.2l9.3,22l-3.9,9.6h6.6l12.8-31.6h-6.7
	L161.8,129.6L161.8,129.6z M219.1,114.3c-2.2,0-4.2,0.8-6.3,2.5v-2h-6.2v5.2c-1,0.6-1.9,0.9-1.9,0.9c0-3.3-1.8-6.5-5.1-6.5
	c-2.6,0-5.2,2.1-5.2,5.7s1.6,6.1,4.1,7.1c-0.2,2.4-1.5,4.9-4.8,4.9c-3.5,0-4.8-2.9-4.8-5.5v-11.7h-6.2v11.7c0,6.8,4.6,11.7,11,11.7
	s10.6-4.5,10.9-10.9c0.6-0.1,1.3-0.3,1.9-0.5v11h6.2v-14.3c1.4-2,2.9-2.9,4.7-2.9c2.2,0,4.4,1.7,4.4,4.7v12.5h6.2v-14.9
	c0-2.3-0.9-4.5-2.6-6.1S221.6,114.3,219.1,114.3L219.1,114.3z"/>
</svg>
