<svg width="194" height="43" viewBox="0 0 194 43" fill="none" xmlns="http://www.w3.org/2000/svg">
<path d="M63.2327 29.9941C61.6408 29.9941 60.1873 29.6764 58.8896 29.0411C57.5918 28.4059 56.4844 27.5588 55.5501 26.5C54.6157 25.4411 53.9062 24.2235 53.3871 22.8823C52.868 21.5411 52.6258 20.1647 52.6258 18.7353C52.6258 17.2529 52.9026 15.8411 53.439 14.5C53.9755 13.1588 54.7195 11.9588 55.6712 10.9C56.6229 9.84115 57.7476 9.01173 59.0453 8.39409C60.3431 7.77644 61.7619 7.47644 63.3192 7.47644C64.8938 7.47644 66.33 7.79409 67.6277 8.44703C68.9255 9.09997 70.0329 9.96468 70.95 11.0411C71.867 12.1176 72.5938 13.3353 73.0956 14.6764C73.6147 16.0176 73.8569 17.3941 73.8569 18.8059C73.8569 20.2706 73.5974 21.6647 73.061 23.0059C72.5246 24.347 71.7805 25.547 70.8288 26.6059C69.8772 27.6647 68.7524 28.4941 67.4547 29.0941C66.1743 29.6941 64.7554 29.9941 63.2327 29.9941ZM63.2673 26.1823C64.2882 26.1823 65.2053 25.9706 66.0012 25.547C66.7972 25.1235 67.4547 24.5411 67.9911 23.8353C68.5275 23.1117 68.9255 22.3176 69.2023 21.4353C69.4792 20.5529 69.6176 19.6529 69.6176 18.7529C69.6176 17.8 69.4619 16.8647 69.1677 15.9647C68.8736 15.0647 68.4583 14.2706 67.9046 13.5823C67.3682 12.8941 66.6934 12.347 65.9147 11.9235C65.1188 11.5 64.2363 11.3059 63.2673 11.3059C62.2291 11.3059 61.312 11.5176 60.5161 11.9411C59.7201 12.3647 59.0626 12.947 58.5435 13.6529C58.0071 14.3764 57.6091 15.1706 57.3323 16.0529C57.0554 16.9353 56.917 17.8176 56.917 18.7353C56.917 19.6882 57.0554 20.6235 57.3496 21.5235C57.6437 22.4235 58.0417 23.2176 58.5954 23.9059C59.1318 24.5941 59.8067 25.1411 60.5853 25.5647C61.3639 25.9706 62.2637 26.1823 63.2673 26.1823ZM63.3365 21.6117H66.7107C66.7799 21.6117 66.8318 21.647 66.8837 21.6823L73.6493 29.447C73.7877 29.6059 73.6839 29.8353 73.4762 29.8353H70.1021C70.0329 29.8353 69.981 29.8 69.9291 29.7647L63.1635 22C63.0424 21.8411 63.1462 21.6117 63.3365 21.6117Z" fill="#FCFCFC"/>
<path d="M87.6127 29.6059V27.3647C87.6127 27.2764 87.4916 27.2412 87.457 27.3117C87.0936 27.8764 86.661 28.3706 86.1246 28.7588C85.519 29.2176 84.8442 29.5706 84.1174 29.8C83.3734 30.0294 82.6294 30.1353 81.8507 30.1353C80.8817 30.1353 80.0685 29.9941 79.3763 29.6941C78.6842 29.3941 78.1305 28.9706 77.7152 28.4059C77.2999 27.8412 76.9885 27.1706 76.8155 26.3764C76.6251 25.5823 76.5386 24.7 76.5386 23.7647V13.8294C76.5386 13.7059 76.6424 13.6 76.7635 13.6H80.4145C80.5357 13.6 80.6395 13.7059 80.6395 13.8294V22.8294C80.6395 23.5529 80.726 24.1882 80.8817 24.7529C81.0375 25.3176 81.3316 25.7588 81.7469 26.0764C82.1622 26.3941 82.7159 26.5529 83.4253 26.5529C83.9444 26.5529 84.4462 26.447 84.9653 26.2176C85.4844 25.9882 85.9516 25.6529 86.3842 25.2294C86.7994 24.8059 87.1455 24.2941 87.4397 23.6941C87.457 23.6588 87.457 23.6235 87.457 23.5882V13.8294C87.457 13.7059 87.5608 13.6 87.6819 13.6H91.3329C91.454 13.6 91.5578 13.7059 91.5578 13.8294V29.5882C91.5578 29.7117 91.454 29.8176 91.3329 29.8176H87.8376C87.7165 29.8353 87.6127 29.7294 87.6127 29.6059Z" fill="#FCFCFC"/>
<path d="M95.3127 10.9353V7.22941C95.3127 7.10588 95.4166 7 95.5377 7H99.1887C99.3098 7 99.4136 7.10588 99.4136 7.22941V10.9176C99.4136 11.0412 99.3098 11.1471 99.1887 11.1471H95.5377C95.4166 11.1647 95.3127 11.0588 95.3127 10.9353ZM95.3127 29.6059V13.6706C95.3127 13.5471 95.4166 13.4412 95.5377 13.4412H99.1887C99.3098 13.4412 99.4136 13.5471 99.4136 13.6706V29.5882C99.4136 29.7118 99.3098 29.8176 99.1887 29.8176H95.5377C95.4166 29.8353 95.3127 29.7294 95.3127 29.6059Z" fill="#FCFCFC"/>
<path d="M110.609 30.1529C109.294 30.1529 108.118 29.9235 107.079 29.4823C106.041 29.0411 105.141 28.4235 104.415 27.6294C103.671 26.8353 103.117 25.9353 102.719 24.9294C102.321 23.9235 102.113 22.8647 102.113 21.7353C102.113 20.2176 102.459 18.8058 103.134 17.5529C103.826 16.2823 104.795 15.2764 106.058 14.5C107.322 13.7411 108.827 13.3529 110.575 13.3529C112.305 13.3529 113.81 13.7411 115.056 14.5176C116.215 15.2411 117.115 16.1588 117.721 17.3058C117.79 17.4294 117.721 17.5882 117.582 17.6411L114.001 18.7529C113.897 18.7882 113.793 18.7353 113.741 18.647C113.412 18.1176 112.98 17.7117 112.461 17.4117C111.89 17.0941 111.249 16.9353 110.557 16.9353C109.779 16.9353 109.069 17.1294 108.429 17.5353C107.789 17.9411 107.287 18.4882 106.906 19.2294C106.526 19.9706 106.353 20.8 106.353 21.7529C106.353 22.6882 106.543 23.5353 106.924 24.2588C107.304 24.9823 107.806 25.5647 108.446 25.9706C109.087 26.3941 109.779 26.6058 110.557 26.6058C111.042 26.6058 111.509 26.5176 111.959 26.3588C112.391 26.2 112.789 25.9706 113.135 25.6706C113.43 25.4235 113.655 25.1411 113.828 24.8411C113.88 24.7529 113.983 24.7 114.087 24.7353L117.669 25.847C117.807 25.8823 117.877 26.0588 117.807 26.1823C117.444 26.8882 116.942 27.5411 116.319 28.1235C115.61 28.7764 114.779 29.2706 113.828 29.6411C112.876 30.0117 111.803 30.1529 110.609 30.1529Z" fill="#FCFCFC"/>
<path d="M131.339 29.7294L126.874 23.0412C126.788 22.9176 126.632 22.9 126.528 23.0059L124.608 24.9118C124.556 24.9471 124.538 25.0176 124.538 25.0706V29.5882C124.538 29.7118 124.434 29.8177 124.313 29.8177H120.662C120.541 29.8177 120.437 29.7118 120.437 29.5882V7.22941C120.437 7.10588 120.541 7 120.662 7H124.313C124.434 7 124.538 7.10588 124.538 7.22941V20.6588C124.538 20.7471 124.642 20.7824 124.694 20.7118L130.941 13.6706C130.992 13.6176 131.044 13.6 131.114 13.6H134.851C135.041 13.6 135.145 13.8294 135.024 13.9882L129.504 20.3588C129.435 20.4471 129.435 20.5529 129.487 20.6412L135.543 29.4647C135.647 29.6235 135.543 29.8353 135.353 29.8353H131.529C131.46 29.8353 131.373 29.8 131.339 29.7294Z" fill="#FCFCFC"/>
<path d="M147.171 30.153C145.925 30.153 144.817 29.8706 143.866 29.3059C143.001 28.7941 142.326 28.1235 141.807 27.2765C141.755 27.2059 141.651 27.2412 141.651 27.3294V36.2765C141.651 36.4 141.547 36.5059 141.426 36.5059H137.775C137.654 36.5059 137.55 36.4 137.55 36.2765V13.8294C137.55 13.7059 137.654 13.6 137.775 13.6H140.907C141.028 13.6 141.132 13.7059 141.132 13.8294V15.9824C141.132 16.1059 141.288 16.1588 141.374 16.0706C141.945 15.2765 142.637 14.6588 143.468 14.1824C144.402 13.6353 145.475 13.3706 146.686 13.3706C147.776 13.3706 148.763 13.5824 149.68 14.0235C150.597 14.4647 151.375 15.0647 152.05 15.8412C152.725 16.6177 153.244 17.5 153.625 18.5059C154.005 19.5118 154.196 20.5883 154.196 21.7353C154.196 23.3059 153.902 24.7177 153.296 26.0059C152.69 27.2765 151.86 28.3 150.804 29.0588C149.749 29.7647 148.538 30.153 147.171 30.153ZM145.786 26.5883C146.427 26.5883 146.998 26.4471 147.499 26.1824C148.019 25.9177 148.451 25.5471 148.832 25.0883C149.212 24.6294 149.489 24.1 149.697 23.5177C149.887 22.9353 149.991 22.3177 149.991 21.7C149.991 21.0294 149.887 20.3941 149.662 19.8294C149.437 19.2647 149.143 18.753 148.728 18.3118C148.313 17.8706 147.846 17.5353 147.309 17.2883C146.773 17.0412 146.184 16.9177 145.544 16.9177C145.164 16.9177 144.766 16.9883 144.368 17.1118C143.97 17.2353 143.589 17.4294 143.226 17.6765C142.862 17.9235 142.533 18.2059 142.257 18.5235C141.997 18.8412 141.789 19.1765 141.668 19.5471C141.668 19.5647 141.651 19.6 141.651 19.6353V23.3412C141.651 23.3765 141.651 23.4118 141.668 23.4294C141.911 23.9941 142.239 24.5235 142.637 25C143.053 25.4941 143.537 25.8647 144.091 26.1471C144.662 26.4471 145.215 26.5883 145.786 26.5883Z" fill="#FCFCFC"/>
<path d="M163.609 30.1529C162.501 30.1529 161.48 29.9412 160.563 29.5C159.629 29.0588 158.833 28.4765 158.141 27.7C157.449 26.9412 156.93 26.0412 156.566 25.0176C156.203 23.9941 156.013 22.9 156.013 21.7176C156.013 20.5353 156.203 19.4588 156.566 18.4353C156.93 17.4117 157.449 16.5294 158.089 15.7529C158.729 14.9765 159.491 14.3765 160.373 13.9529C161.255 13.5294 162.207 13.3176 163.228 13.3176C164.439 13.3176 165.512 13.6 166.464 14.1823C167.312 14.6941 168.004 15.3647 168.488 16.1941C168.54 16.2647 168.644 16.2294 168.644 16.1412V13.8294C168.644 13.7059 168.748 13.6 168.869 13.6H172.52C172.641 13.6 172.745 13.7059 172.745 13.8294V29.5882C172.745 29.7117 172.641 29.8176 172.52 29.8176H168.869C168.748 29.8176 168.644 29.7117 168.644 29.5882V27.5059C168.644 27.4176 168.523 27.3823 168.488 27.4529C168.004 28.2294 167.381 28.8647 166.619 29.3235C165.772 29.8882 164.768 30.1529 163.609 30.1529ZM168.644 20.1117C168.644 20.0765 168.644 20.0588 168.627 20.0235C168.402 19.4235 168.073 18.8941 167.658 18.4353C167.225 17.9588 166.741 17.5882 166.204 17.3235C165.668 17.0588 165.097 16.9176 164.509 16.9176C163.903 16.9176 163.332 17.0588 162.813 17.3235C162.294 17.5882 161.844 17.9588 161.463 18.4353C161.082 18.9117 160.788 19.4412 160.581 20.0235C160.373 20.6059 160.269 21.2235 160.269 21.8412C160.269 22.7235 160.46 23.5176 160.84 24.2412C161.221 24.9647 161.74 25.5294 162.398 25.9529C163.055 26.3765 163.816 26.5882 164.647 26.5882C165.253 26.5882 165.824 26.4823 166.325 26.2529C166.827 26.0235 167.277 25.7235 167.658 25.3C168.038 24.9117 168.35 24.4529 168.609 23.9412C168.627 23.9059 168.644 23.8706 168.644 23.8353V20.1117V20.1117Z" fill="#FCFCFC"/>
<path d="M176.794 33.3118C176.794 33.1706 176.933 33.0471 177.071 33.0824C177.33 33.1353 177.59 33.1883 177.815 33.2412C178.126 33.3118 178.403 33.3295 178.628 33.3295C179.009 33.3295 179.338 33.2236 179.597 33.0295C179.857 32.8353 180.099 32.4824 180.341 31.9706C180.584 31.4765 180.826 30.8059 181.085 29.9412C181.103 29.8883 181.103 29.8353 181.085 29.7824L174.891 13.9C174.839 13.7412 174.943 13.5824 175.098 13.5824H178.87C178.974 13.5824 179.044 13.6353 179.078 13.7412L183.231 25.3C183.265 25.4059 183.421 25.4059 183.456 25.3L187.107 13.7589C187.141 13.6706 187.228 13.6 187.332 13.6H190.775C190.931 13.6 191.035 13.7589 190.983 13.9177L184.338 33.1177C184.096 33.8412 183.715 34.4942 183.214 35.0942C182.712 35.6765 182.089 36.153 181.345 36.4883C180.601 36.8236 179.77 37 178.853 37C178.524 37 178.196 36.9824 177.867 36.9295C177.59 36.8765 177.279 36.8059 176.95 36.7177C176.846 36.6824 176.794 36.5942 176.794 36.4883V33.3118V33.3118Z" fill="#FCFCFC"/>
<path d="M15.8042 17.6765H27.086C27.2244 17.6765 27.3282 17.7824 27.3282 17.9236V18.7354C27.3282 22.7942 25.5633 26.4471 22.7947 28.9354C22.6563 29.0589 22.6909 29.2883 22.864 29.3589C24.0406 29.7824 25.2864 30.0118 26.5669 30.0118C32.6576 30.0118 37.6063 24.9648 37.6063 18.753C37.6063 12.5412 32.6576 7.49419 26.5669 7.49419C20.2685 7.47654 16.1503 12.453 15.5966 17.4295C15.5793 17.553 15.6831 17.6765 15.8042 17.6765Z" fill="#FCFCFC"/>
<path d="M24.7502 19.7765H13.4858C13.3647 19.7765 13.2781 19.6883 13.2781 19.5647V18.7353C13.2781 14.6765 15.0431 11.0236 17.8116 8.53533C17.95 8.4118 17.9154 8.18239 17.7424 8.1118C16.5658 7.68827 15.3199 7.45886 14.0395 7.45886C7.94873 7.47651 3 12.5236 3 18.7353C3 24.9471 7.94873 29.9942 14.0395 29.9942C20.4244 29.9942 24.4214 25.0177 24.9925 20.0412C25.0098 19.9 24.9059 19.7765 24.7502 19.7765Z" fill="#FCFCFC"/>
</svg>
